<svg id="Group_7" data-name="Group 7" xmlns="http://www.w3.org/2000/svg" width="358" height="200" viewBox="0 0 358 200">
  <g id="Group_4" data-name="Group 4">
    <circle id="Oval" cx="100" cy="100" r="100" fill="#2c6269"/>
    <path id="Combined_Shape" data-name="Combined Shape" d="M100,200a99.532,99.532,0,0,1-55.911-17.078,100.292,100.292,0,0,1-36.23-44,99.868,99.868,0,0,1,9.22-94.835,100.292,100.292,0,0,1,44-36.23,99.868,99.868,0,0,1,94.835,9.22,100.292,100.292,0,0,1,36.23,44,99.868,99.868,0,0,1-9.22,94.835,100.292,100.292,0,0,1-44,36.23A99.374,99.374,0,0,1,100,200Zm0-133a33,33,0,1,0,33,33A33.038,33.038,0,0,0,100,67Z" transform="translate(158)" fill="#012f34"/>
    <rect id="Rectangle" width="43" height="43" transform="translate(358 43) rotate(-180)" fill="#79c8c7"/>
    <path id="Combined_Shape_Copy" data-name="Combined Shape Copy" d="M100,200a99.532,99.532,0,0,1-55.911-17.078,100.292,100.292,0,0,1-36.23-44,99.868,99.868,0,0,1,9.22-94.835,100.292,100.292,0,0,1,44-36.23,99.868,99.868,0,0,1,94.835,9.22,100.292,100.292,0,0,1,36.23,44,99.868,99.868,0,0,1-9.22,94.835,100.292,100.292,0,0,1-44,36.23A99.374,99.374,0,0,1,100,200Zm0-133a33,33,0,1,0,33,33A33.038,33.038,0,0,0,100,67Z" transform="translate(133.514)" fill="#f67e7e"/>
  </g>
  <path id="Combined_Shape-2" data-name="Combined Shape" d="M0,44V40H100v4Zm0-8V32H100v4Zm0-8V24H100v4Zm0-8V16H100v4Zm0-8V8H100v4ZM0,4V0H100V4Z" fill="#79c8c7"/>
</svg>
