<svg xmlns="http://www.w3.org/2000/svg" width="200" height="200" viewBox="0 0 200 200">
  <g id="Group_8" data-name="Group 8" transform="translate(200)">
    <rect id="Rectangle" width="100" height="100" transform="translate(0 100) rotate(-180)" fill="#2c6269"/>
    <path id="Combined_Shape_Copy" data-name="Combined Shape Copy" d="M-100,200a99.374,99.374,0,0,0,38.925-7.858,100.007,100.007,0,0,0,16.986-9.22,100.717,100.717,0,0,0,14.8-12.211,100.717,100.717,0,0,0,12.211-14.8,100.007,100.007,0,0,0,9.22-16.986A99.374,99.374,0,0,0,0,100,99.374,99.374,0,0,0-7.858,61.075a100.007,100.007,0,0,0-9.22-16.986,100.717,100.717,0,0,0-12.211-14.8,100.717,100.717,0,0,0-14.8-12.211,100.007,100.007,0,0,0-16.986-9.22A99.374,99.374,0,0,0-100,0a99.374,99.374,0,0,0-38.925,7.858,100.007,100.007,0,0,0-16.986,9.22,100.717,100.717,0,0,0-14.8,12.211,100.717,100.717,0,0,0-12.211,14.8,100.007,100.007,0,0,0-9.22,16.986A99.374,99.374,0,0,0-200,100a99.374,99.374,0,0,0,7.858,38.925,100.007,100.007,0,0,0,9.22,16.986,100.717,100.717,0,0,0,12.211,14.8,100.717,100.717,0,0,0,14.8,12.211,100.007,100.007,0,0,0,16.986,9.22A99.374,99.374,0,0,0-100,200Zm0-133a33.038,33.038,0,0,1,33,33,33.038,33.038,0,0,1-33,33,33.038,33.038,0,0,1-33-33A33.038,33.038,0,0,1-100,67Z" transform="translate(0)" fill="#012f34"/>
    <path id="Combined_Shape" data-name="Combined Shape" d="M0,44V40H-100v4Zm0-8V32H-100v4Zm0-8V24H-100v4Zm0-8V16H-100v4Zm0-8V8H-100v4ZM0,4V0H-100V4Z" transform="translate(0 56)" fill="#79c8c7"/>
    <path id="Combined_Shape-2" data-name="Combined Shape" d="M-49,44V40h-4v4Zm7,0V40h-4v4Zm7,0V40h-4v4Zm7,0V40h-4v4Zm7,0V40h-4v4Zm7,0V40h-4v4Zm7,0V40h-4v4Zm7,0V40H-4v4Zm-49-8V32h-4v4Zm7,0V32h-4v4Zm7,0V32h-4v4Zm7,0V32h-4v4Zm7,0V32h-4v4Zm7,0V32h-4v4Zm7,0V32h-4v4Zm7,0V32H-4v4Zm-49-8V24h-4v4Zm7,0V24h-4v4Zm7,0V24h-4v4Zm7,0V24h-4v4Zm7,0V24h-4v4Zm7,0V24h-4v4Zm7,0V24h-4v4Zm7,0V24H-4v4Zm-49-8V16h-4v4Zm7,0V16h-4v4Zm7,0V16h-4v4Zm7,0V16h-4v4Zm7,0V16h-4v4Zm7,0V16h-4v4Zm7,0V16h-4v4Zm7,0V16H-4v4Zm-49-8V8h-4v4Zm7,0V8h-4v4Zm7,0V8h-4v4Zm7,0V8h-4v4Zm7,0V8h-4v4Zm7,0V8h-4v4Zm7,0V8h-4v4Zm7,0V8H-4v4ZM-49,4V0h-4V4Zm7,0V0h-4V4Zm7,0V0h-4V4Zm7,0V0h-4V4Zm7,0V0h-4V4Zm7,0V0h-4V4Zm7,0V0h-4V4ZM0,4V0H-4V4Z" transform="translate(0 100)" fill="#f67e7e"/>
  </g>
</svg>
