<svg xmlns="http://www.w3.org/2000/svg" width="67" height="56" viewBox="0 0 67 56">
  <path id="_" data-name="“" d="M40.083,51.575Q36,47.151,36,39.063A36.958,36.958,0,0,1,38.57,26.55a78.472,78.472,0,0,1,6.881-14.037A65.359,65.359,0,0,1,55.356,0H67a88.629,88.629,0,0,0-3.931,11.139,35.382,35.382,0,0,0-1.361,9.155,23.945,23.945,0,0,0,1.21,8.087q1.21,3.357,2.495,6.561A20.464,20.464,0,0,1,66.7,42.572a12.528,12.528,0,0,1-4.234,9.461Q58.229,56,51.273,56,44.167,56,40.083,51.575Zm-36,0Q0,47.151,0,39.063A36.958,36.958,0,0,1,2.57,26.55,78.472,78.472,0,0,1,9.451,12.513,65.359,65.359,0,0,1,19.356,0H31a88.629,88.629,0,0,0-3.931,11.139,35.382,35.382,0,0,0-1.361,9.155,23.945,23.945,0,0,0,1.21,8.087q1.21,3.357,2.495,6.561A20.464,20.464,0,0,1,30.7,42.572a12.528,12.528,0,0,1-4.234,9.461Q22.229,56,15.273,56,8.167,56,4.083,51.575Z" fill="#2c6269"/>
</svg>
